# xmcd
# 
# Track frame offsets:
#     150
#     17278
#     30726
#     48720
#     67454
#     88021
#     103139
#     122201
#     145126
#     163370
#     182128
#     204400
#     226919
#     242001
# 
# Disc length: 3484
# 
# Revision: 4
# Processed by: cddbd v1.5.2PL0 Copyright (c) Steve Scherf et al.
# Submitted via: BonkEnc v1.0.6
# 
DISCID=ca0d9a0e
DTITLE=Uncut - Bruce Springsteen Thunder Road Tracks Inspired By The Boss
DYEAR=2005
DGENRE=Rock
TTITLE0=The Cash Brothers - Nebraska
TTITLE1=Tom Russell - I'm On Fire
TTITLE2=Dave Alvin and The Guilty Men - California Snow
TTITLE3=Cowboy Junkies - You're Missing
TTITLE4=Delbert McClinton - Down Into Mexico
TTITLE5=Jeff Finlin - Just Like Everyman
TTITLE6=Marah - East
TTITLE7=Jeffrey Foucault - Northbound 35
TTITLE8=John Hiatt - Thunderbird
TTITLE9=Jon Dee Graham - Sleep Enough To Dream
TTITLE10=Slobberbone - Some New Town
TTITLE11=Mary Lou Lord - Thunder Road
TTITLE12=Slaid Cleaves - Last Of The V8s
TTITLE13=Steve Wynn - State Trooper
EXTD=plexi
EXTT0=
EXTT1=
EXTT2=
EXTT3=
EXTT4=
EXTT5=
EXTT6=
EXTT7=
EXTT8=
EXTT9=
EXTT10=
EXTT11=
EXTT12=
EXTT13=
PLAYORDER=
